<svg width="569.8px" height="128.6px" xmlns="http://www.w3.org/2000/svg" viewBox="-34.90312499999999 10.700000000000003 569.80625 128.6" style="background: rgba(0, 0, 0, 0)" preserveAspectRatio="xMidYMid"><defs><filter id="editing-extrusion" x="-100%" y="-100%" width="300%" height="300%"><feFlood result="color1" flood-color="#444444"></feFlood><feConvolveMatrix order="8,8" divisor="1" kernelMatrix="1 0 0 0 0 0 0 0 0 1 0 0 0 0 0 0 0 0 1 0 0 0 0 0 0 0 0 1 0 0 0 0 0 0 0 0 1 0 0 0 0 0 0 0 0 1 0 0 0 0 0 0 0 0 1 0 0 0 0 0 0 0 0 1" in="SourceAlpha" result="extrude"></feConvolveMatrix><feComposite in="color1" in2="extrude" result="comp-extrude" operator="in"></feComposite><feOffset dx="4" dy="4" in="comp-extrude" result="offset-extrude"></feOffset><feMerge><feMergeNode in="offset-extrude"></feMergeNode><feMergeNode in="SourceGraphic"></feMergeNode></feMerge></filter></defs><style>    text {
  font-size: 64px;
  font-family: Arial Black;
  dominant-baseline: central;
  text-anchor: middle;
}</style><g>    <g filter="url(#editing-extrusion)">
        <g transform="translate(47.3,107)">
            <path fill="#cccccc" d="M 5.1 -47.8 L 15.8 -47.8 L 15.8 -47.8 Q 14.7 -44.9 14.5 -42 L 14.5 -42 L 14.5 -42 Q 14.3 -39.1 14.2 -37 L 14.2 -37 L 14.2 -37 Q 14.1 -34.9 14.1 -32.6 L 14.1 -32.6 L 14.1 -32.6 Q 14 -27.4 14 -23.1 L 14 -23.1 L 14 -23.1 Q 14 -5.4 15.3 -1.4 L 15.3 -1.4 L 15.3 -1.4 Q 15.5 -0.7 15.8 0 L 15.8 0 L 5.1 0 L 5.1 0 Q 6 -2.1 6.2 -3.8 L 6.2 -3.8 L 6.2 -3.8 Q 6.4 -5.6 6.6 -7.9 L 6.6 -7.9 L 6.6 -7.9 Q 6.9 -12.8 6.9 -19.3 L 6.9 -19.3 L 6.9 -19.3 Q 6.9 -25.7 6.9 -28 L 6.9 -28 L 6.9 -28 Q 6.9 -30.4 6.8 -32.6 L 6.8 -32.6 L 6.8 -32.6 Q 6.6 -43.6 5.5 -46.6 L 5.5 -46.6 L 5.1 -47.8 Z M 34.3 0 L 25.3 0 L 25.3 0 Q 26.8 -4.9 26.8 -17 L 26.8 -17 L 26.8 -17 Q 26.8 -25.5 25.3 -28.7 L 25.3 -28.7 L 25.3 -28.7 Q 24.9 -29.4 24.4 -30.1 L 24.4 -30.1 L 23.4 -31.6 L 34.3 -31.6 L 34.3 -31.6 Q 33.8 -29.7 33.6 -28.6 L 33.6 -28.6 L 33.4 -26.8 L 33.4 -26.8 Q 37 -32.2 42.6 -32.2 L 42.6 -32.2 L 42.6 -32.2 Q 48.3 -32.2 49.9 -26.1 L 49.9 -26.1 L 49.9 -26.1 Q 52.4 -30.3 56.4 -31.7 L 56.4 -31.7 L 56.4 -31.7 Q 57.9 -32.2 59.7 -32.2 L 59.7 -32.2 L 59.7 -32.2 Q 61.5 -32.2 62.9 -31.4 L 62.9 -31.4 L 62.9 -31.4 Q 64.4 -30.7 65.4 -29.3 L 65.4 -29.3 L 65.4 -29.3 Q 67.3 -26.4 67.3 -21.5 L 67.3 -21.5 L 67.3 -18.1 L 67.3 -18.1 Q 67.3 -8.6 67.6 -6.1 L 67.6 -6.1 L 67.6 -6.1 Q 67.9 -3.7 68 -2.9 L 68 -2.9 L 68 -2.9 Q 68.2 -1.6 68.6 0 L 68.6 0 L 59.4 0 L 59.4 0 Q 60.8 -4.7 60.8 -17 L 60.8 -17 L 60.8 -17 Q 60.8 -21.9 60.3 -23.6 L 60.3 -23.6 L 60.3 -23.6 Q 59.8 -25.3 59 -26.1 L 59 -26.1 L 59 -26.1 Q 58.2 -26.9 56.8 -26.9 L 56.8 -26.9 L 56.8 -26.9 Q 52.8 -26.9 50.4 -22.1 L 50.4 -22.1 L 50.4 -18.1 L 50.4 -18.1 Q 50.4 -8.6 50.7 -6.1 L 50.7 -6.1 L 50.7 -6.1 Q 50.9 -3.7 51.1 -2.9 L 51.1 -2.9 L 51.1 -2.9 Q 51.3 -1.6 51.7 0 L 51.7 0 L 42.5 0 L 42.5 0 Q 43.9 -4.8 43.9 -17 L 43.9 -17 L 43.9 -17 Q 43.9 -22.1 43.4 -23.7 L 43.4 -23.7 L 43.4 -23.7 Q 42.9 -25.3 42.1 -26.1 L 42.1 -26.1 L 42.1 -26.1 Q 41.3 -26.9 40 -26.9 L 40 -26.9 L 40 -26.9 Q 38.6 -26.9 37.5 -26.3 L 37.5 -26.3 L 37.5 -26.3 Q 36.4 -25.8 35.5 -24.9 L 35.5 -24.9 L 35.5 -24.9 Q 33.9 -23.3 32.9 -20.8 L 32.9 -20.8 L 32.9 -20.8 Q 32.9 -19.8 32.9 -18.9 L 32.9 -18.9 L 32.9 -17 L 32.9 -17 Q 32.9 -4.9 34.3 0 L 34.3 0 Z M 49.3 -18.8 L 49.4 -19.4 L 49.3 -18.8 Z M 99.5 -16.7 L 99.5 -16.7 L 99.4 -10.7 L 99.4 -10.7 Q 99.4 -5.1 100.4 -3.1 L 100.4 -3.1 L 100.4 -3.1 Q 101 -1.8 101.9 -1.2 L 101.9 -1.2 L 103.3 0 L 94.3 0 L 93.3 -3.6 L 93.3 -3.6 Q 89.8 0.6 83.3 0.6 L 83.3 0.6 L 83.3 0.6 Q 79.5 0.6 77.3 -1.9 L 77.3 -1.9 L 77.3 -1.9 Q 75.3 -4.1 75.3 -7.2 L 75.3 -7.2 L 75.3 -7.2 Q 75.3 -10.3 76.7 -12.5 L 76.7 -12.5 L 76.7 -12.5 Q 78.2 -14.8 80.5 -16.3 L 80.5 -16.3 L 80.5 -16.3 Q 85.2 -19.2 92.3 -19.3 L 92.3 -19.3 L 92.3 -19.7 L 92.3 -19.7 Q 92.3 -27.3 90 -28.6 L 90 -28.6 L 90 -28.6 Q 89.1 -29.1 87.8 -29.1 L 87.8 -29.1 L 87.8 -29.1 Q 86.5 -29.1 85.2 -28.2 L 85.2 -28.2 L 85.2 -28.2 Q 83.8 -27.3 82.8 -25.9 L 82.8 -25.9 L 82.8 -25.9 Q 80.7 -23.2 79.8 -19.4 L 79.8 -19.4 L 79.8 -19.4 Q 77 -21 77 -25.7 L 77 -25.7 L 77 -25.7 Q 77 -27.6 77.5 -30 L 77.5 -30 L 77.5 -30 Q 78.7 -30 79.7 -30.3 L 79.7 -30.3 L 82.1 -31.1 L 82.1 -31.1 Q 85.7 -32.2 89 -32.2 L 89 -32.2 L 89 -32.2 Q 92.4 -32.2 94.4 -31.2 L 94.4 -31.2 L 94.4 -31.2 Q 96.4 -30.2 97.6 -28.2 L 97.6 -28.2 L 97.6 -28.2 Q 99.5 -24.9 99.5 -16.7 Z M 82 -6.6 L 82 -6.6 Q 82 -4.6 82.9 -3.6 L 82.9 -3.6 L 82.9 -3.6 Q 83.8 -2.5 85.1 -2.5 L 85.1 -2.5 L 85.1 -2.5 Q 86.5 -2.5 87.7 -3.2 L 87.7 -3.2 L 87.7 -3.2 Q 89 -3.9 90 -5.1 L 90 -5.1 L 90 -5.1 Q 92.3 -7.9 92.3 -11.7 L 92.3 -11.7 L 92.3 -16.3 L 92.3 -16.3 Q 87.9 -15.9 85.1 -13.4 L 85.1 -13.4 L 85.1 -13.4 Q 82 -10.7 82 -6.6 L 82 -6.6 Z M 124 -0.8 L 124 -0.8 L 124 -0.8 Q 121 0.6 118 0.6 L 118 0.6 L 118 0.6 Q 115.1 0.6 113.2 -0.1 L 113.2 -0.1 L 113.2 -0.1 Q 111.2 -0.9 109.8 -2.3 L 109.8 -2.3 L 109.8 -2.3 Q 107 -5.3 107 -10.6 L 107 -10.6 L 107 -10.6 Q 107 -20.8 112.8 -26.5 L 112.8 -26.5 L 112.8 -26.5 Q 118 -31.6 125.4 -31.6 L 125.4 -31.6 L 132.5 -31.6 L 132.5 -31.6 Q 131.6 -28.5 131.5 -25.8 L 131.5 -25.8 L 131.5 -25.8 Q 131.4 -23 131.3 -21.2 L 131.3 -21.2 L 131.3 -21.2 Q 131.3 -19.4 131.3 -17.6 L 131.3 -17.6 L 131.3 -17.6 Q 131.2 -14 131.2 -10.2 L 131.2 -10.2 L 131.2 -10.2 Q 131.2 -6.4 130.6 -2.9 L 130.6 -2.9 L 130.6 -2.9 Q 130 0.7 129 3.3 L 129 3.3 L 129 3.3 Q 128 6 126.8 7.8 L 126.8 7.8 L 126.8 7.8 Q 125.5 9.7 124.1 11 L 124.1 11 L 124.1 11 Q 121.9 13.1 118.9 14.1 L 118.9 14.1 L 118.9 14.1 Q 118.3 13.8 117.7 13.2 L 117.7 13.2 L 117.7 13.2 Q 117.1 12.5 117 11.9 L 117 11.9 L 117 11.9 Q 120.6 10.4 122.7 4.7 L 122.7 4.7 L 122.7 4.7 Q 123.5 2.5 124 -0.8 Z M 124.7 -10.4 L 124.7 -10.4 L 124.8 -19.8 L 124.8 -19.8 Q 124.8 -25.5 124.4 -28.4 L 124.4 -28.4 L 124.4 -28.4 Q 119.9 -27.5 117.4 -23.1 L 117.4 -23.1 L 117.4 -23.1 Q 114.8 -18.7 114.8 -11.8 L 114.8 -11.8 L 114.8 -11.8 Q 114.8 -7.6 115.4 -5.9 L 115.4 -5.9 L 115.4 -5.9 Q 116.1 -4.1 117 -3.3 L 117 -3.3 L 117 -3.3 Q 117.8 -2.5 119.1 -2.5 L 119.1 -2.5 L 119.1 -2.5 Q 120.4 -2.5 121.3 -3 L 121.3 -3 L 121.3 -3 Q 122.3 -3.5 123.1 -4.5 L 123.1 -4.5 L 123.1 -4.5 Q 124.7 -6.7 124.7 -10.4 Z M 160.5 -10.6 L 160.5 -10.6 L 160.5 -10.6 Q 161.6 -9.9 161.6 -8 L 161.6 -8 L 161.6 -8 Q 161.6 -6.2 161.1 -4.8 L 161.1 -4.8 L 161.1 -4.8 Q 160.6 -3.3 159.4 -2.1 L 159.4 -2.1 L 159.4 -2.1 Q 156.6 0.6 150.8 0.6 L 150.8 0.6 L 150.8 0.6 Q 144.1 0.6 140.6 -4.3 L 140.6 -4.3 L 140.6 -4.3 Q 137.5 -8.7 137.5 -16.2 L 137.5 -16.2 L 137.5 -16.2 Q 137.5 -23.8 141.7 -28.1 L 141.7 -28.1 L 141.7 -28.1 Q 145.7 -32.2 152.5 -32.2 L 152.5 -32.2 L 152.5 -32.2 Q 157.2 -32.2 159.8 -29.4 L 159.8 -29.4 L 159.8 -29.4 Q 161.9 -27.3 161.9 -24.4 L 161.9 -24.4 L 161.9 -24.4 Q 161.9 -21.5 160.8 -19.2 L 160.8 -19.2 L 160.8 -19.2 Q 159.7 -16.9 157.6 -15.3 L 157.6 -15.3 L 157.6 -15.3 Q 153.1 -11.8 145.2 -11.7 L 145.2 -11.7 L 145.2 -11.7 Q 145.8 -5.4 149.1 -3.3 L 149.1 -3.3 L 149.1 -3.3 Q 150.3 -2.5 152.3 -2.5 L 152.3 -2.5 L 152.3 -2.5 Q 154.2 -2.5 156.4 -4.6 L 156.4 -4.6 L 156.4 -4.6 Q 158.7 -6.6 160.5 -10.6 Z M 145 -15.6 L 145 -14.6 L 145 -14.6 Q 154.8 -15.3 154.8 -24.2 L 154.8 -24.2 L 154.8 -24.2 Q 154.8 -27.5 152.8 -28.7 L 152.8 -28.7 L 152.8 -28.7 Q 152.2 -29.1 151 -29.1 L 151 -29.1 L 151 -29.1 Q 149.9 -29.1 148.8 -28.4 L 148.8 -28.4 L 148.8 -28.4 Q 147.6 -27.7 146.8 -26.1 L 146.8 -26.1 L 146.8 -26.1 Q 145 -22.7 145 -15.6 L 145 -15.6 Z M 188.1 -33.4 L 188.1 -33.4 L 188.1 -33.4 Q 189 -31.5 189 -29.6 L 189 -29.6 L 189 -29.6 Q 189 -27.7 188.8 -26.5 L 188.8 -26.5 L 188.8 -26.5 Q 188.6 -25.2 188.3 -24.1 L 188.3 -24.1 L 188.3 -24.1 Q 187.5 -21.4 186.1 -20 L 186.1 -20 L 186.1 -20 Q 185.1 -24.9 183.9 -26.3 L 183.9 -26.3 L 183.9 -26.3 Q 182.8 -27.8 181.7 -28.3 L 181.7 -28.3 L 181.7 -28.3 Q 180.5 -28.8 179.3 -28.8 L 179.3 -28.8 L 179.3 -28.8 Q 178 -28.8 177.2 -28.5 L 177.2 -28.5 L 177.2 -28.5 Q 176.3 -28.3 175.8 -27.8 L 175.8 -27.8 L 175.8 -27.8 Q 174.4 -26.8 174.4 -25.4 L 174.4 -25.4 L 174.4 -25.4 Q 174.4 -24.1 175.1 -23.2 L 175.1 -23.2 L 175.1 -23.2 Q 175.7 -22.2 176.8 -21.4 L 176.8 -21.4 L 176.8 -21.4 Q 177.9 -20.6 179.3 -19.8 L 179.3 -19.8 L 182.1 -18.2 L 182.1 -18.2 Q 185.7 -16.2 187 -14.8 L 187 -14.8 L 187 -14.8 Q 189.7 -12.2 189.7 -9.2 L 189.7 -9.2 L 189.7 -9.2 Q 189.7 -5.4 187.1 -2.8 L 187.1 -2.8 L 187.1 -2.8 Q 183.8 0.6 177.1 0.6 L 177.1 0.6 L 177.1 0.6 Q 171.1 0.6 168.1 -2.2 L 168.1 -2.2 L 168.1 -2.2 Q 167.2 -3 166.8 -3.8 L 166.8 -3.8 L 166.8 -3.8 Q 167.1 -6.2 168.9 -8.2 L 168.9 -8.2 L 168.9 -8.2 Q 170.7 -10.2 172.4 -10.5 L 172.4 -10.5 L 172.4 -10.5 Q 172.3 -10.1 172.3 -9.3 L 172.3 -9.3 L 172.3 -9.3 Q 172.3 -8.5 172.7 -7.3 L 172.7 -7.3 L 172.7 -7.3 Q 173.2 -6.1 174.1 -5.1 L 174.1 -5.1 L 174.1 -5.1 Q 176 -2.7 178.5 -2.7 L 178.5 -2.7 L 178.5 -2.7 Q 181 -2.7 182.1 -3.8 L 182.1 -3.8 L 182.1 -3.8 Q 183.3 -4.9 183.3 -6.4 L 183.3 -6.4 L 183.3 -6.4 Q 183.3 -7.8 182.6 -8.8 L 182.6 -8.8 L 182.6 -8.8 Q 182 -9.8 180.9 -10.6 L 180.9 -10.6 L 180.9 -10.6 Q 179.8 -11.4 178.4 -12.2 L 178.4 -12.2 L 175.6 -13.8 L 175.6 -13.8 Q 172 -15.9 170.7 -17.4 L 170.7 -17.4 L 170.7 -17.4 Q 168 -20.4 168 -24 L 168 -24 L 168 -24 Q 168 -27.7 171.1 -30 L 171.1 -30 L 171.1 -30 Q 174.1 -32.2 178.5 -32.2 L 178.5 -32.2 L 184 -31.8 L 184 -31.8 Q 186 -31.8 186.8 -32.3 L 186.8 -32.3 L 186.8 -32.3 Q 187.6 -32.8 188.1 -33.4 Z M 238.6 -15.3 L 238.6 -15.3 L 238.5 -19.3 L 238.5 -19.3 Q 238.5 -22.9 237.8 -24.1 L 237.8 -24.1 L 237.8 -24.1 Q 237.2 -25.2 236.4 -25.8 L 236.4 -25.8 L 236.4 -25.8 Q 235.7 -26.3 234.6 -26.9 L 234.6 -26.9 L 248.3 -26.9 L 248.3 -26.9 Q 246.3 -25.1 245.8 -22.3 L 245.8 -22.3 L 245.8 -22.3 Q 245.3 -19.6 245.3 -13.9 L 245.3 -13.9 L 245.3 -13.9 Q 245.3 -3 246.6 0.6 L 246.6 0.6 L 246.6 0.6 Q 246.2 0.7 245.7 0.7 L 245.7 0.7 L 244.9 0.7 L 244.9 0.7 Q 231.1 0.7 224 -8.2 L 224 -8.2 L 224 -8.2 Q 217.3 -16.7 217.3 -32.2 L 217.3 -32.2 L 217.3 -32.2 Q 217.3 -39.9 221.8 -44 L 221.8 -44 L 221.8 -44 Q 226 -47.8 233 -47.8 L 233 -47.8 L 238.5 -47.8 L 238.5 -47.8 Q 242.8 -47.8 244.6 -48.8 L 244.6 -48.8 L 244.6 -48.8 Q 245.3 -49.3 245.8 -50 L 245.8 -50 L 245.8 -50 Q 246.6 -48.5 246.6 -45.9 L 246.6 -45.9 L 246.6 -45.9 Q 246.6 -43.3 246.4 -41.6 L 246.4 -41.6 L 246.4 -41.6 Q 246.3 -40 245.9 -38.5 L 245.9 -38.5 L 245.9 -38.5 Q 245.3 -35.3 243.9 -33.4 L 243.9 -33.4 L 243.9 -33.4 Q 242.7 -39.7 240.9 -42.1 L 240.9 -42.1 L 240.9 -42.1 Q 238.9 -44.7 234.7 -44.7 L 234.7 -44.7 L 234.7 -44.7 Q 229.3 -44.7 227.1 -40.4 L 227.1 -40.4 L 227.1 -40.4 Q 225.5 -37.2 225.5 -30.8 L 225.5 -30.8 L 225.5 -30.8 Q 225.5 -22 228.2 -14 L 228.2 -14 L 228.2 -14 Q 230.1 -8.3 233 -5.9 L 233 -5.9 L 233 -5.9 Q 234.4 -4.7 236 -4.7 L 236 -4.7 L 236 -4.7 Q 237.6 -4.7 238 -5.6 L 238 -5.6 L 238 -5.6 Q 238.5 -6.5 238.5 -8.7 L 238.5 -8.7 L 238.5 -8.7 Q 238.6 -13 238.6 -15.3 Z M 276.6 -16.7 L 276.6 -16.7 L 276.5 -10.7 L 276.5 -10.7 Q 276.5 -5.1 277.5 -3.1 L 277.5 -3.1 L 277.5 -3.1 Q 278.1 -1.8 279 -1.2 L 279 -1.2 L 280.4 0 L 271.4 0 L 270.4 -3.6 L 270.4 -3.6 Q 266.9 0.6 260.3 0.6 L 260.3 0.6 L 260.3 0.6 Q 256.6 0.6 254.3 -1.9 L 254.3 -1.9 L 254.3 -1.9 Q 252.3 -4.1 252.3 -7.2 L 252.3 -7.2 L 252.3 -7.2 Q 252.3 -10.3 253.8 -12.5 L 253.8 -12.5 L 253.8 -12.5 Q 255.3 -14.8 257.6 -16.3 L 257.6 -16.3 L 257.6 -16.3 Q 262.3 -19.2 269.4 -19.3 L 269.4 -19.3 L 269.4 -19.7 L 269.4 -19.7 Q 269.4 -27.3 267.1 -28.6 L 267.1 -28.6 L 267.1 -28.6 Q 266.2 -29.1 264.9 -29.1 L 264.9 -29.1 L 264.9 -29.1 Q 263.6 -29.1 262.3 -28.2 L 262.3 -28.2 L 262.3 -28.2 Q 260.9 -27.3 259.9 -25.9 L 259.9 -25.9 L 259.9 -25.9 Q 257.8 -23.2 256.8 -19.4 L 256.8 -19.4 L 256.8 -19.4 Q 254.1 -21 254.1 -25.7 L 254.1 -25.7 L 254.1 -25.7 Q 254.1 -27.6 254.6 -30 L 254.6 -30 L 254.6 -30 Q 255.8 -30 256.8 -30.3 L 256.8 -30.3 L 259.2 -31.1 L 259.2 -31.1 Q 262.8 -32.2 266.1 -32.2 L 266.1 -32.2 L 266.1 -32.2 Q 269.5 -32.2 271.5 -31.2 L 271.5 -31.2 L 271.5 -31.2 Q 273.5 -30.2 274.7 -28.2 L 274.7 -28.2 L 274.7 -28.2 Q 276.6 -24.9 276.6 -16.7 Z M 259.1 -6.6 L 259.1 -6.6 Q 259.1 -4.6 260 -3.6 L 260 -3.6 L 260 -3.6 Q 260.9 -2.5 262.2 -2.5 L 262.2 -2.5 L 262.2 -2.5 Q 263.6 -2.5 264.8 -3.2 L 264.8 -3.2 L 264.8 -3.2 Q 266.1 -3.9 267.1 -5.1 L 267.1 -5.1 L 267.1 -5.1 Q 269.4 -7.9 269.4 -11.7 L 269.4 -11.7 L 269.4 -16.3 L 269.4 -16.3 Q 265 -15.9 262.2 -13.4 L 262.2 -13.4 L 262.2 -13.4 Q 259.1 -10.7 259.1 -6.6 L 259.1 -6.6 Z M 293.8 -22.5 L 293.8 -14.3 L 293.8 -14.3 Q 293.8 -4.2 295 0 L 295 0 L 285.8 0 L 285.8 0 Q 286.6 -3 286.8 -7.2 L 286.8 -7.2 L 286.8 -7.2 Q 287.3 -17.1 287.3 -22.6 L 287.3 -22.6 L 287.3 -22.6 Q 287.3 -28.1 287.3 -30 L 287.3 -30 L 287.3 -30 Q 287.3 -31.9 287.2 -33.8 L 287.2 -33.8 L 287.2 -33.8 Q 287 -40.6 286.6 -42.4 L 286.6 -42.4 L 286.6 -42.4 Q 286.1 -44.1 285.7 -44.9 L 285.7 -44.9 L 285.7 -44.9 Q 285.3 -45.7 284.8 -46.4 L 284.8 -46.4 L 283.8 -47.8 L 295.2 -47.8 L 295.2 -47.8 Q 294.3 -44.7 294.2 -41.8 L 294.2 -41.8 L 294.2 -41.8 Q 294.1 -38.9 294 -36.7 L 294 -36.7 L 294 -36.7 Q 293.9 -34.4 293.8 -32 L 293.8 -32 L 293.8 -32 Q 293.8 -28 293.8 -22.5 L 293.8 -22.5 Z M 311.3 -22.5 L 311.3 -14.3 L 311.3 -14.3 Q 311.3 -4.2 312.5 0 L 312.5 0 L 303.3 0 L 303.3 0 Q 304.2 -3 304.4 -7.2 L 304.4 -7.2 L 304.4 -7.2 Q 304.9 -17.1 304.9 -22.6 L 304.9 -22.6 L 304.9 -22.6 Q 304.9 -28.1 304.8 -30 L 304.8 -30 L 304.8 -30 Q 304.8 -31.9 304.8 -33.8 L 304.8 -33.8 L 304.8 -33.8 Q 304.6 -40.6 304.1 -42.4 L 304.1 -42.4 L 304.1 -42.4 Q 303.7 -44.1 303.3 -44.9 L 303.3 -44.9 L 303.3 -44.9 Q 302.9 -45.7 302.4 -46.4 L 302.4 -46.4 L 301.4 -47.8 L 312.8 -47.8 L 312.8 -47.8 Q 311.9 -44.7 311.8 -41.8 L 311.8 -41.8 L 311.8 -41.8 Q 311.6 -38.9 311.6 -36.7 L 311.6 -36.7 L 311.6 -36.7 Q 311.5 -34.4 311.4 -32 L 311.4 -32 L 311.4 -32 Q 311.3 -28 311.3 -22.5 L 311.3 -22.5 Z M 342.1 -10.6 L 342.1 -10.6 L 342.1 -10.6 Q 343.2 -9.9 343.2 -8 L 343.2 -8 L 343.2 -8 Q 343.2 -6.2 342.7 -4.8 L 342.7 -4.8 L 342.7 -4.8 Q 342.2 -3.3 341 -2.1 L 341 -2.1 L 341 -2.1 Q 338.2 0.6 332.4 0.6 L 332.4 0.6 L 332.4 0.6 Q 325.7 0.6 322.2 -4.3 L 322.2 -4.3 L 322.2 -4.3 Q 319.1 -8.7 319.1 -16.2 L 319.1 -16.2 L 319.1 -16.2 Q 319.1 -23.8 323.3 -28.1 L 323.3 -28.1 L 323.3 -28.1 Q 327.3 -32.2 334.1 -32.2 L 334.1 -32.2 L 334.1 -32.2 Q 338.8 -32.2 341.4 -29.4 L 341.4 -29.4 L 341.4 -29.4 Q 343.5 -27.3 343.5 -24.4 L 343.5 -24.4 L 343.5 -24.4 Q 343.5 -21.5 342.4 -19.2 L 342.4 -19.2 L 342.4 -19.2 Q 341.3 -16.9 339.2 -15.3 L 339.2 -15.3 L 339.2 -15.3 Q 334.7 -11.8 326.8 -11.7 L 326.8 -11.7 L 326.8 -11.7 Q 327.4 -5.4 330.7 -3.3 L 330.7 -3.3 L 330.7 -3.3 Q 331.9 -2.5 333.8 -2.5 L 333.8 -2.5 L 333.8 -2.5 Q 335.8 -2.5 338 -4.6 L 338 -4.6 L 338 -4.6 Q 340.3 -6.6 342.1 -10.6 Z M 326.6 -15.6 L 326.6 -14.6 L 326.6 -14.6 Q 336.4 -15.3 336.4 -24.2 L 336.4 -24.2 L 336.4 -24.2 Q 336.4 -27.5 334.4 -28.7 L 334.4 -28.7 L 334.4 -28.7 Q 333.8 -29.1 332.6 -29.1 L 332.6 -29.1 L 332.6 -29.1 Q 331.5 -29.1 330.4 -28.4 L 330.4 -28.4 L 330.4 -28.4 Q 329.2 -27.7 328.4 -26.1 L 328.4 -26.1 L 328.4 -26.1 Q 326.6 -22.7 326.6 -15.6 L 326.6 -15.6 Z M 360.1 0 L 350.8 0 L 350.8 0 Q 352.3 -4.9 352.3 -17 L 352.3 -17 L 352.3 -17 Q 352.3 -25.5 350.9 -28.7 L 350.9 -28.7 L 350.9 -28.7 Q 350.3 -29.9 348.9 -31.6 L 348.9 -31.6 L 360 -31.6 L 360 -31.6 Q 359.4 -29.6 359.1 -26.2 L 359.1 -26.2 L 359.1 -26.2 Q 362 -29.8 367.3 -31.4 L 367.3 -31.4 L 367.3 -31.4 Q 369.5 -32 370.6 -33.4 L 370.6 -33.4 L 370.6 -33.4 Q 371.6 -31 371.6 -29.2 L 371.6 -29.2 L 371.6 -29.2 Q 371.6 -27.4 371.4 -25.9 L 371.4 -25.9 L 371.4 -25.9 Q 371.2 -24.4 370.8 -22.9 L 370.8 -22.9 L 370.8 -22.9 Q 370 -19.8 368.7 -18.1 L 368.7 -18.1 L 368.7 -18.1 Q 367.5 -24.2 365.1 -25.3 L 365.1 -25.3 L 365.1 -25.3 Q 362.3 -26.5 359.6 -21.9 L 359.6 -21.9 L 359.6 -21.9 Q 359 -21 358.7 -19.9 L 358.7 -19.9 L 358.7 -19.9 Q 358.6 -19.2 358.6 -18.5 L 358.6 -18.5 L 358.6 -18.5 Q 358.6 -17.7 358.6 -17 L 358.6 -17 L 358.6 -17 Q 358.6 -4.9 360.1 0 L 360.1 0 Z M 393 -9.4 L 393 -10.3 L 393.1 -17.3 L 393.1 -17.3 Q 393.1 -23.8 392.7 -25.8 L 392.7 -25.8 L 392.7 -25.8 Q 392.4 -27.8 392.2 -28.6 L 392.2 -28.6 L 392.2 -28.6 Q 392 -29.4 391.7 -30.1 L 391.7 -30.1 L 391.1 -31.6 L 400.3 -31.6 L 400.2 -30.1 L 400.2 -30.1 Q 400 -28.6 399.9 -25.8 L 399.9 -25.8 L 399.8 -21 L 399.8 -21 Q 399.6 -15.5 399.6 -10.8 L 399.6 -10.8 L 399.6 -10.8 Q 399.6 -6 399.1 -2.7 L 399.1 -2.7 L 399.1 -2.7 Q 398.5 0.7 397.5 3.3 L 397.5 3.3 L 397.5 3.3 Q 396.5 5.8 395.3 7.7 L 395.3 7.7 L 395.3 7.7 Q 394 9.6 392.7 10.8 L 392.7 10.8 L 392.7 10.8 Q 390.3 13.1 387.3 14.1 L 387.3 14.1 L 387.3 14.1 Q 386.7 13.8 386.1 13.1 L 386.1 13.1 L 386.1 13.1 Q 385.6 12.5 385.4 11.9 L 385.4 11.9 L 385.4 11.9 Q 388.2 10.5 389.8 7.6 L 389.8 7.6 L 389.8 7.6 Q 392.2 3.4 392.8 -4.3 L 392.8 -4.3 L 392.8 -4.3 Q 389.2 0.6 383.9 0.6 L 383.9 0.6 L 383.9 0.6 Q 380.2 0.6 378.1 -2.3 L 378.1 -2.3 L 378.1 -2.3 Q 376.1 -5.2 376.1 -10.1 L 376.1 -10.1 L 376.1 -14.3 L 376.1 -14.3 Q 376.1 -15.8 376.1 -17.2 L 376.1 -17.2 L 376.1 -20.1 L 376.1 -20.1 Q 376 -22.8 375.9 -24.3 L 375.9 -24.3 L 375.9 -24.3 Q 375.8 -25.8 375.6 -26.8 L 375.6 -26.8 L 375.6 -26.8 Q 375.4 -27.8 375.2 -28.6 L 375.2 -28.6 L 375.2 -28.6 Q 374.9 -29.4 374.6 -30.1 L 374.6 -30.1 L 373.9 -31.6 L 383.4 -31.6 L 383.4 -31.6 Q 382.6 -27.1 382.6 -14.7 L 382.6 -14.7 L 382.6 -14.7 Q 382.6 -9.6 383.2 -7.9 L 383.2 -7.9 L 383.2 -7.9 Q 383.7 -6.2 384.5 -5.5 L 384.5 -5.5 L 384.5 -5.5 Q 385.3 -4.7 386.5 -4.7 L 386.5 -4.7 L 386.5 -4.7 Q 387.8 -4.7 388.7 -5.1 L 388.7 -5.1 L 388.7 -5.1 Q 389.7 -5.5 390.5 -6.1 L 390.5 -6.1 L 390.5 -6.1 Q 392 -7.3 393 -9.4 L 393 -9.4 Z M 394 -12.1 L 394.2 -12.8 L 394 -12.1 Z">
                </path>
        </g>
    </g></g></svg>